<svg xmlns="http://www.w3.org/2000/svg" width="97" height="70" viewBox="0 0 97 70">
  <metadata><?xpacket begin="﻿" id="W5M0MpCehiHzreSzNTczkc9d"?>
<x:xmpmeta xmlns:x="adobe:ns:meta/" x:xmptk="Adobe XMP Core 5.6-c138 79.159824, 2016/09/14-01:09:01        ">
   <rdf:RDF xmlns:rdf="http://www.w3.org/1999/02/22-rdf-syntax-ns#">
      <rdf:Description rdf:about=""/>
   </rdf:RDF>
</x:xmpmeta>
<?xpacket end="w"?></metadata>
<defs>
    <style>
      .cls-1 {
        fill: #969696;
        fill-rule: evenodd;
      }
    </style>
  </defs>
  <path id="icon-products-3" class="cls-1" d="M455,138H407.117L404,141.533V142h-0.411L401,144.933V145h-0.059L393,154h-4v-3h2.647l0.353-.4V148h2.294l0.706-.8V145h1.941L398,143.8V142h1.588L401,140.4V138H362V84h97v54h-4Zm-50-5h11V107H405v26Zm50-44H366v7h89V89Zm0,11H366v33h36V104h17v29h36V100Zm-24,4h14v21H428V104h3Zm0,18h11V107H431v15Zm-52,3h-3V104h17v21H379Zm11-18H379v15h11V107Zm-16.5,32a7.5,7.5,0,1,1-7.5,7.5A7.5,7.5,0,0,1,373.5,139Zm0,11.538a4.039,4.039,0,1,0-4.039-4.038A4.038,4.038,0,0,0,373.5,150.538ZM448.5,139a7.5,7.5,0,1,1-7.5,7.5A7.5,7.5,0,0,1,448.5,139Zm0,11.538a4.039,4.039,0,1,0-4.039-4.038A4.038,4.038,0,0,0,448.5,150.538Z" transform="translate(-362 -84)"/>
</svg>
