<svg xmlns="http://www.w3.org/2000/svg" width="94" height="77" viewBox="0 0 94 77">
  <metadata><?xpacket begin="﻿" id="W5M0MpCehiHzreSzNTczkc9d"?>
<x:xmpmeta xmlns:x="adobe:ns:meta/" x:xmptk="Adobe XMP Core 5.6-c138 79.159824, 2016/09/14-01:09:01        ">
   <rdf:RDF xmlns:rdf="http://www.w3.org/1999/02/22-rdf-syntax-ns#">
      <rdf:Description rdf:about=""/>
   </rdf:RDF>
</x:xmpmeta>
                           
<?xpacket end="w"?></metadata>
<defs>
    <style>
      .cls-1 {
        fill: #969696;
        fill-rule: evenodd;
      }
    </style>
  </defs>
  <path id="icon-services-9" class="cls-1" d="M463,848.667V849H445v4h11v12H410V853h11v-4H402v-0.059c-5.061-.4-6.5-3.715-6.879-5.941H395v-1.072a7.879,7.879,0,0,1,0-.928v-3h-5s-2,.417-2-4v-9h-8v-3h8v-8h0.044c0.281-3.338,1.956-3,1.956-3h5v-3a7.879,7.879,0,0,1,0-.928V807h0c0.122-2.027,1.084-6.478,7-6.941V800h23V788h15l5,6v6h18v0.333L474,804v41ZM392,813c-0.75,0-.913.133-0.976,0.633L391,814v20s-0.5,2,1,2h3V813h-3Zm15-10h-4.819c-1.418.107-4.181,0.847-4.181,5v33c0,4.153,2.763,4.893,4.181,5H407V803Zm6,53v6h40v-6H413Zm29-3v-4H424v4h18Zm0-58-3-3H428v8h14v-5Zm17,8H410v5h49v-5Zm0,8H410v6h49v-6Zm0,9H410v7h49v-7Zm0,10H410v7h49v-7Zm0,10H410v6h49v-6Zm11-14V806l-8-2.667v42.334L470,843V826Z" transform="translate(-380 -788)"/>
</svg>
