<svg xmlns="http://www.w3.org/2000/svg" width="83" height="89" viewBox="0 0 83 89">
  <metadata><?xpacket begin="﻿" id="W5M0MpCehiHzreSzNTczkc9d"?>
<x:xmpmeta xmlns:x="adobe:ns:meta/" x:xmptk="Adobe XMP Core 5.6-c138 79.159824, 2016/09/14-01:09:01        ">
   <rdf:RDF xmlns:rdf="http://www.w3.org/1999/02/22-rdf-syntax-ns#">
      <rdf:Description rdf:about=""/>
   </rdf:RDF>
</x:xmpmeta>
<?xpacket end="w"?></metadata>
<defs>
    <style>
      .cls-1 {
        fill: #969696;
        fill-rule: evenodd;
      }
    </style>
  </defs>
  <path id="icon-products-2" class="cls-1" d="M290,126v4H264v9h-1v11h2v3h-7v-3h2V139h-6v26h-2v-2h-7v2h-2V139h-6v11h2v3h-7v-3h2V139h-1v-9H207v-4h26V103H207V99h26V76h31V89h21l1,2,4,8h-2l-3-6-3,6h-2l-3-6-3,6h-2l-3-6-3,6h24v4H264v13h21l1,2,4,8h-2l-3-6-3,6h-2l-3-6-3,6h-2l-3-6-3,6h24Zm-45,35h7v-3h-7v3Zm0-5h7v-3h-7v3Zm0-5h7v-3h-7v3Zm0-5h7v-3h-7v3Zm0-5h7v-2h-7v2Zm16-61H236v53h25V80Zm20,17,3-6h-6Zm-8,0,3-6h-6Zm-5-6h-4v8Zm13,33,3-6h-6Zm-8,0,3-6h-6Zm-5-6h-4v8ZM231,99l-3-6-3,6h-2l-3-6-3,6h-2l-3-6-3,6h-2l4-8,1-2h21v2h-4l4,8h-2Zm-18-8,3,6,3-6h-6Zm8,0,3,6,3-6h-6Zm10,35-3-6-3,6h-2l-3-6-3,6h-2l-3-6-3,6h-2l4-8,1-2h21v2h-4l4,8h-2Zm-18-8,3,6,3-6h-6Zm8,0,3,6,3-6h-6Z" transform="translate(-207 -76)"/>
</svg>
