<svg xmlns="http://www.w3.org/2000/svg" width="101" height="57.031" viewBox="0 0 101 57.031">
  <metadata><?xpacket begin="﻿" id="W5M0MpCehiHzreSzNTczkc9d"?>
<x:xmpmeta xmlns:x="adobe:ns:meta/" x:xmptk="Adobe XMP Core 5.6-c138 79.159824, 2016/09/14-01:09:01        ">
   <rdf:RDF xmlns:rdf="http://www.w3.org/1999/02/22-rdf-syntax-ns#">
      <rdf:Description rdf:about=""/>
   </rdf:RDF>
</x:xmpmeta>
                           
<?xpacket end="w"?></metadata>
<defs>
    <style>
      .cls-1 {
        fill: #969696;
        fill-rule: evenodd;
      }
    </style>
  </defs>
  <path id="icon-products-7" class="cls-1" d="M596.922,331.132c-0.161.348-.278,0.555-0.278,0.555-7.744,3.8-13.939-1.825-13.939-1.825h-9.293c-15.333.3-22.3-3.652-22.3-3.652H540.888v-5.477h-5.576v-1.826L500,316.168V290.606l35.312-2.738v-1.826h5.576v-5.478h12.08c3.733-3.385,27.684-2.848,31.16-2.751a27.814,27.814,0,0,1,8.8-1.813l3.717,1.826c-0.31,0-.609.022-0.913,0.033,0.18,0.354,4.913,9.948-4.663,22.789l-0.148-.036a27.41,27.41,0,0,1,7.582,6.427C603.49,322.615,599.958,328.75,596.922,331.132ZM533.469,293.22L505,295v17l28.469,1.779V293.22Zm7.419,8.341v-12.78h-3.717L537,293l-1.688.105v20.789L537,314l0.171,3.994h3.717V301.561Zm52.039,28.3c3.717-3.043-.542-10.962-2.788-13.694-6.624-7.829-19.537-10-19.515-10.042l-0.873.429c2.932,3.051,5.135,5.475,5.52,5.961,1.084,1.37,4.646.913,4.646,0.913,7.589,5.174,10.687,16.433,9.293,16.433h-2.788C590.6,332.905,592.927,329.862,592.927,329.862ZM553.9,283.3h-9.292v39.255h7.434s6.04,4.565,17.656,4.565h14.868s-0.464-5.63-2.787-8.216c0,0-6.195.3-9.293-2.739S556.53,296.388,550.18,297v-8.216s9.758-5.782,18.586-8.217C568.766,280.564,557.46,279.652,553.9,283.3Zm-0.929,8.216c2.413,1.218,6.556,4.891,10.625,8.838,4.585-13.686,13.2-19.692,19.918-22.314C570.028,280.975,552.968,291.519,552.968,291.519Zm39.292-13.312c-16.705,2.779-24.6,20.423-26.109,24.672q0.45,0.452.892,0.9l0.329-.162-0.465-.228a27.965,27.965,0,0,1,11.436-5.068c1.405-2.418,7.929-12.708,15.258-9.284C594.626,285.553,594.687,281.692,592.26,278.207Zm0.425,13.327c-2.469.131-8.235,1.021-10.909,6.376a18.568,18.568,0,0,1,6.078,1.258A32.271,32.271,0,0,0,592.685,291.534Zm3.029,17.331a18.473,18.473,0,0,0-13.938-8.217,26.385,26.385,0,0,0-9.593,2.937,32.421,32.421,0,0,1,20.744,10.757,15.6,15.6,0,0,1,5.018,8.723C598.252,316.247,595.714,308.865,595.714,308.865Z" transform="translate(-500 -275.969)"/>
</svg>
