<svg xmlns="http://www.w3.org/2000/svg" width="81.656" height="84.688" viewBox="0 0 81.656 84.688">
  <metadata><?xpacket begin="﻿" id="W5M0MpCehiHzreSzNTczkc9d"?>
<x:xmpmeta xmlns:x="adobe:ns:meta/" x:xmptk="Adobe XMP Core 5.6-c138 79.159824, 2016/09/14-01:09:01        ">
   <rdf:RDF xmlns:rdf="http://www.w3.org/1999/02/22-rdf-syntax-ns#">
      <rdf:Description rdf:about=""/>
   </rdf:RDF>
</x:xmpmeta>
                           
<?xpacket end="w"?></metadata>
<defs>
    <style>
      .cls-1 {
        fill: #969696;
        fill-rule: evenodd;
      }
    </style>
  </defs>
  <path id="icon-services-4" class="cls-1" d="M185.06,703.181a17.575,17.575,0,0,1-.084,8.679l3.266,3.158-3.642,6.31-4.521-1.19a17.71,17.71,0,0,1-7.384,4.226l-1.124,4.493h-7.285l-1.223-4.483a17.708,17.708,0,0,1-7.4-4.214l-4.405,1.16-3.643-6.31,3.157-3.052a17.58,17.58,0,0,1-.089-8.885l-3.075-3.1,3.643-6.309,4.116,1.177a17.722,17.722,0,0,1,7.786-4.542l1.133-4.153h7.285l1.042,4.165a17.725,17.725,0,0,1,7.764,4.555l4.229-1.21,3.643,6.31Zm-1.977-6.431-4.5,1.333a20.884,20.884,0,0,0-7.5-4.583l-1.5-4.5H166.5l-1.417,4.583A22.906,22.906,0,0,0,157,698l-4.25-1.417-2,3.334,3,2.75a28.529,28.529,0,0,0-.528,4.877,22.859,22.859,0,0,0,.578,4.707L151,715l1.75,3.333,4.4-.571a25.287,25.287,0,0,0,8.017,4.405L166,726h4l1-4.167a25.869,25.869,0,0,0,8.083-4.5l4.084,1.334L185,715.583l-3.333-3.25a26.472,26.472,0,0,0,.437-4.956,25.16,25.16,0,0,0-.521-4.46l3.084-2.75Zm-15.224,19.235a8.632,8.632,0,1,1,8.632-8.632A8.632,8.632,0,0,1,167.859,715.985Zm0-14.122a5.493,5.493,0,1,0,5.492,5.492A5.492,5.492,0,0,0,167.859,701.863Zm4.7-36.516a17.67,17.67,0,0,1-.587,4.513l3.266,3.158-3.642,6.31-4.521-1.19a17.71,17.71,0,0,1-7.384,4.226l-1.124,4.493h-7.285l-1.223-4.483a17.708,17.708,0,0,1-7.4-4.214l-4.405,1.16-3.643-6.31,3.157-3.052a17.58,17.58,0,0,1-.089-8.885l-3.075-3.1,3.643-6.309,4.116,1.177a17.722,17.722,0,0,1,7.786-4.542l1.133-4.153h7.285l1.042,4.165a17.725,17.725,0,0,1,7.764,4.555l4.229-1.21,3.643,6.31-3.189,3.218A17.7,17.7,0,0,1,172.563,665.347Zm-2.48-10.6-4.5,1.333a20.884,20.884,0,0,0-7.5-4.583l-1.5-4.5H153.5l-1.417,4.583A22.906,22.906,0,0,0,144,656l-4.25-1.417-2,3.334,3,2.75a28.529,28.529,0,0,0-.528,4.877,22.859,22.859,0,0,0,.578,4.707L138,673l1.75,3.333,4.4-.571a25.287,25.287,0,0,0,8.017,4.405L153,684h4l1-4.167a25.869,25.869,0,0,0,8.083-4.5l4.084,1.334L172,673.583l-3.333-3.25a26.472,26.472,0,0,0,.437-4.956,25.16,25.16,0,0,0-.521-4.46l3.084-2.75Zm-15.224,19.235a8.632,8.632,0,1,1,8.632-8.632A8.632,8.632,0,0,1,154.859,673.985Zm0-14.122a5.493,5.493,0,1,0,5.492,5.492A5.492,5.492,0,0,0,154.859,659.863Zm-11.253,24.79,3.643,6.31-3.189,3.218a17.575,17.575,0,0,1-.084,8.679l3.266,3.158-3.642,6.31-4.521-1.19a17.71,17.71,0,0,1-7.384,4.226l-1.124,4.493h-7.285l-1.223-4.483a17.708,17.708,0,0,1-7.4-4.214l-4.405,1.16-3.643-6.31,3.157-3.052a17.58,17.58,0,0,1-.089-8.885l-3.075-3.1,3.643-6.309,4.116,1.177a17.722,17.722,0,0,1,7.786-4.542l1.133-4.153h7.285l1.042,4.165a17.725,17.725,0,0,1,7.764,4.555Zm-13.523-.153-1.5-4.5H125.5l-1.417,4.583A22.906,22.906,0,0,0,116,689l-4.25-1.417-2,3.334,3,2.75a28.529,28.529,0,0,0-.528,4.877,22.859,22.859,0,0,0,.578,4.707L110,706l1.75,3.333,4.4-.571a25.287,25.287,0,0,0,8.017,4.405L125,717h4l1-4.167a25.869,25.869,0,0,0,8.083-4.5l4.084,1.334L144,706.583l-3.333-3.25a26.472,26.472,0,0,0,.437-4.956,25.16,25.16,0,0,0-.521-4.46l3.084-2.75-1.584-3.417-4.5,1.333A20.884,20.884,0,0,0,130.083,684.5Zm-3.224,22.485a8.632,8.632,0,1,1,8.632-8.632A8.632,8.632,0,0,1,126.859,706.985Zm0-14.122a5.493,5.493,0,1,0,5.492,5.492A5.492,5.492,0,0,0,126.859,692.863Z" transform="translate(-106.594 -644.156)"/>
</svg>
