<svg xmlns="http://www.w3.org/2000/svg" width="87.594" height="88.25" viewBox="0 0 87.594 88.25">
  <metadata><?xpacket begin="﻿" id="W5M0MpCehiHzreSzNTczkc9d"?>
<x:xmpmeta xmlns:x="adobe:ns:meta/" x:xmptk="Adobe XMP Core 5.6-c138 79.159824, 2016/09/14-01:09:01        ">
   <rdf:RDF xmlns:rdf="http://www.w3.org/1999/02/22-rdf-syntax-ns#">
      <rdf:Description rdf:about=""/>
   </rdf:RDF>
</x:xmpmeta>
<?xpacket end="w"?></metadata>
<defs>
    <style>
      .cls-1 {
        fill: #969696;
        fill-rule: evenodd;
      }
    </style>
  </defs>
  <path id="icon-products-4" class="cls-1" d="M110.266,297.688a2.641,2.641,0,1,1-2.641,2.64A2.64,2.64,0,0,1,110.266,297.688Zm0-14.469a2.641,2.641,0,1,1-2.641,2.64A2.64,2.64,0,0,1,110.266,283.219Zm69.484,7.031v3.375H157.857v7.26a28.16,28.16,0,0,1,21.393,12.74l-3,2.375a24.5,24.5,0,0,0-18.393-11.209v11.49c6.142,2.194,10.018,5.339,10.018,8.844,0,6.627-13.767,12-30.75,12s-30.75-5.373-30.75-12c0-3.457,3.774-6.56,9.768-8.75V295.956a2.63,2.63,0,0,1,0-5.256V269.625c-5.994-2.19-9.768-5.293-9.768-8.75,0-6.627,13.767-12,30.75-12s30.75,5.373,30.75,12c0,3.5-3.876,6.65-10.018,8.844v9.49A24.5,24.5,0,0,0,176.25,268l3,2.375a28.16,28.16,0,0,1-21.393,12.74v7.135H179.75Zm-16.373-26.88c0-5.727-11.753-10.37-26.252-10.37s-26.252,4.643-26.252,10.37c0,2.332,1.979,4.475,5.27,6.207v-6.148l3.428-2.572v64.286l-3.428-2.286v-6.434c-3.291,1.732-5.27,3.875-5.27,6.207,0,5.727,11.753,10.37,26.252,10.37s26.252-4.643,26.252-10.37c0-2.393-2.073-4.59-5.52-6.344v6.571l-3.428,2.286V304.685a30.789,30.789,0,0,0-3.554.315v-3.875a34.193,34.193,0,0,1,3.554-.313v-7.187H151V290.25h3.429v-7.062a34.193,34.193,0,0,1-3.554-.313V279a30.789,30.789,0,0,0,3.554.315V260.857l3.428,2.572v6.285C161.3,267.96,163.377,265.763,163.377,263.37Zm-19.234-4.941L148.571,259v67.714l-4.428,1V258.429Zm-9-.286,3.714-.143v69.857h-3.714V258.143Zm-9.714.857,4.428-.571v69.285l-4.428-1V259Zm-23.177,51.969a2.641,2.641,0,1,1,2.641-2.641A2.641,2.641,0,0,1,102.252,310.969Zm0-14.469a2.641,2.641,0,1,1,2.641-2.641A2.641,2.641,0,0,1,102.252,296.5Zm0-14.781a2.641,2.641,0,1,1,2.641-2.641A2.641,2.641,0,0,1,102.252,281.719ZM94.8,317.955a2.641,2.641,0,1,1,2.641-2.64A2.64,2.64,0,0,1,94.8,317.955Zm0-14.468a2.641,2.641,0,1,1,2.641-2.641A2.641,2.641,0,0,1,94.8,303.487Zm0-14.768a2.641,2.641,0,1,1,2.641-2.641A2.641,2.641,0,0,1,94.8,288.719Zm-0.011-15a2.643,2.643,0,1,1,2.643-2.643A2.643,2.643,0,0,1,94.786,273.714Z" transform="translate(-92.156 -248.875)"/>
</svg>
