<svg xmlns="http://www.w3.org/2000/svg" width="57" height="97.969" viewBox="0 0 57 97.969">
  <metadata><?xpacket begin="﻿" id="W5M0MpCehiHzreSzNTczkc9d"?>
<x:xmpmeta xmlns:x="adobe:ns:meta/" x:xmptk="Adobe XMP Core 5.6-c138 79.159824, 2016/09/14-01:09:01        ">
   <rdf:RDF xmlns:rdf="http://www.w3.org/1999/02/22-rdf-syntax-ns#">
      <rdf:Description rdf:about=""/>
   </rdf:RDF>
</x:xmpmeta>
                           
<?xpacket end="w"?></metadata>
<defs>
    <style>
      .cls-1 {
        fill: #969696;
        fill-rule: evenodd;
      }
    </style>
  </defs>
  <path id="icon-services-8" class="cls-1" d="M321,857.021L311,865H274l-9-8,0.828-12H264v-8h2.379L267,828h2v10h11V828l4-22h5v-5s-0.333-2,4-2,4,2,4,2v4.885c0.212-.014.441-0.036,0.7-0.076A13.4,13.4,0,0,1,302,806l4,22v10h11V828h2l0.62,9H321v8h-0.829ZM295,804a2,2,0,0,0-4,0v28a2,2,0,0,0,4,0V804Zm21,39H303V828l-3-18h-3v22c-1,6.666-4,5-4,5s-3,1.666-4-5V810h-3l-3,18v15H270l-0.82,12.338L275,859h35l6.82-3.662Zm-9-18-3.885-41.942s-0.279-7.009-5.017-8.41-5.016-.841-5.016-0.841v-1.8c10.777,0.189,11.918,9,11.918,9l5,42v9h3v-9l-6-43c-1.637-11.046-12.9-11.027-13.918-11v-1.919s10.869-1.4,15.049,8.411c0,0,7.033,36.176,7.869,48.511v12h-9V825Zm-19.1-50.352c-4.738,1.4-5.017,8.41-5.017,8.41L279,824v12h-9V824c0.836-12.335,7.869-48.511,7.869-48.511,4.18-9.812,15.049-8.411,15.049-8.411V769c-1.02-.024-12.282-0.043-13.918,11l-6,43v9h3v-9l5-42s1.141-8.806,11.918-9v1.8S292.639,773.246,287.9,774.648Z" transform="translate(-264 -767.031)"/>
</svg>
