<svg xmlns="http://www.w3.org/2000/svg" width="74.094" height="79" viewBox="0 0 74.094 79">
  <metadata><?xpacket begin="﻿" id="W5M0MpCehiHzreSzNTczkc9d"?>
<x:xmpmeta xmlns:x="adobe:ns:meta/" x:xmptk="Adobe XMP Core 5.6-c138 79.159824, 2016/09/14-01:09:01        ">
   <rdf:RDF xmlns:rdf="http://www.w3.org/1999/02/22-rdf-syntax-ns#">
      <rdf:Description rdf:about=""/>
   </rdf:RDF>
</x:xmpmeta>
                           
<?xpacket end="w"?></metadata>
<defs>
    <style>
      .cls-1 {
        fill: #969696;
        fill-rule: evenodd;
      }
    </style>
  </defs>
  <path id="icon-services-7" class="cls-1" d="M177.5,840h-2a2.5,2.5,0,0,1-2.5-2.5V827h-4v7H157v6h8v13H113V840h8V830H110.083c-4.166,0-4.083-3.333-4.083-3.333V798a3.877,3.877,0,0,1,4.083-4H121v-7h-9V774h54v13h-9v24h12v7h4V806.5a2.5,2.5,0,0,1,2.5-2.5h2a2.5,2.5,0,0,1,2.5,2.5v31A2.5,2.5,0,0,1,177.5,840ZM120,797H110v30h13l1.428,2.143L125,829v6h28V814.5A17.5,17.5,0,1,1,135.5,797,17.5,17.5,0,0,1,153,814.5V797H120Zm33,41H125v2h28v-2Zm-19.848-20.2-7.812,5.917a13.723,13.723,0,0,0,20.325-.006l-7.812-5.917A3.309,3.309,0,0,1,133.152,817.8Zm0.784-5.238-0.724-11.58a13.694,13.694,0,0,0-10.338,18.944l9.489-5.475A3.317,3.317,0,0,1,133.936,812.566Zm4.7,1.879,9.495,5.48A13.693,13.693,0,0,0,137.8,800.988l-0.725,11.584A3.323,3.323,0,0,1,138.633,814.445ZM125,792v2h28v-2H125Zm28-3v-2H125v2h28Zm10-5v-7H115v7h48Zm-23,59H116v7h46v-7H140Zm26-29h-9v17h9V814Zm7,6h-4v5h4v-5Z" transform="translate(-105.906 -774)"/>
</svg>
