<svg xmlns="http://www.w3.org/2000/svg" width="75" height="85" viewBox="0 0 75 85">
  <metadata><?xpacket begin="﻿" id="W5M0MpCehiHzreSzNTczkc9d"?>
<x:xmpmeta xmlns:x="adobe:ns:meta/" x:xmptk="Adobe XMP Core 5.6-c138 79.159824, 2016/09/14-01:09:01        ">
   <rdf:RDF xmlns:rdf="http://www.w3.org/1999/02/22-rdf-syntax-ns#">
      <rdf:Description rdf:about=""/>
   </rdf:RDF>
</x:xmpmeta>
                           
<?xpacket end="w"?></metadata>
<defs>
    <style>
      .cls-1 {
        fill: #969696;
        fill-rule: evenodd;
      }
    </style>
  </defs>
  <path id="icon-services-1" class="cls-1" d="M166,585V574H121v11H106V569h10v-3h-1l-9-9V500h75v57l-9,9h-1v3h10v16H166Zm-19-16h17v-3H147v3Zm-24,0h17v-3H123v3Zm-13,5v7h7v-7h-7Zm35-70H111v12h65V504H145Zm31,51V521H111v34l6,7h53Zm1,19h-7v7h7v-7Zm-28-30h-4v3.233a5.5,5.5,0,1,1-3,0V544h-4a2,2,0,0,1,0-4h11A2,2,0,0,1,149,544Zm-8.781,8.5a3.281,3.281,0,1,0,3.281-3.281A3.281,3.281,0,0,0,140.219,552.5Z" transform="translate(-106 -500)"/>
</svg>
