<svg xmlns="http://www.w3.org/2000/svg" width="97" height="77" viewBox="0 0 97 77">
  <metadata><?xpacket begin="﻿" id="W5M0MpCehiHzreSzNTczkc9d"?>
<x:xmpmeta xmlns:x="adobe:ns:meta/" x:xmptk="Adobe XMP Core 5.6-c138 79.159824, 2016/09/14-01:09:01        ">
   <rdf:RDF xmlns:rdf="http://www.w3.org/1999/02/22-rdf-syntax-ns#">
      <rdf:Description rdf:about=""/>
   </rdf:RDF>
</x:xmpmeta>
                           
<?xpacket end="w"?></metadata>
<defs>
    <style>
      .cls-1 {
        fill: #969696;
        fill-rule: evenodd;
      }
    </style>
  </defs>
  <path id="icon-services-3" class="cls-1" d="M492,571H481v-8H461v22h-4V563H412v8H398V511h0v-3h14v8h69v-8h14v63h-3Zm-83-60h-8v57h8V511Zm8,8h-5v41h5V519Zm8,0h-4v41h4V519Zm8,0h-4v41h4V519Zm8,0h-4v41h4V519Zm8,0h-4v41h4V519Zm4,41h4V519h-4v41Zm28-41H461v41h20V519Zm11-8h-8v57h8V511Z" transform="translate(-398 -508)"/>
</svg>
