<svg xmlns="http://www.w3.org/2000/svg" width="76.031" height="102" viewBox="0 0 76.031 102">
  <metadata><?xpacket begin="﻿" id="W5M0MpCehiHzreSzNTczkc9d"?>
<x:xmpmeta xmlns:x="adobe:ns:meta/" x:xmptk="Adobe XMP Core 5.6-c138 79.159824, 2016/09/14-01:09:01        ">
   <rdf:RDF xmlns:rdf="http://www.w3.org/1999/02/22-rdf-syntax-ns#">
      <rdf:Description rdf:about=""/>
   </rdf:RDF>
</x:xmpmeta>
                           
<?xpacket end="w"?></metadata>
<defs>
    <style>
      .cls-1 {
        fill: #969696;
        fill-rule: evenodd;
      }
    </style>
  </defs>
  <path id="icon-services-6" class="cls-1" d="M473.589,698.921l-8.764,9.988,1.1,4L451.679,717.9l1.1,3c-2.739.5-3.287,0-3.287,0-8.011-.687-14.241-10.987-14.241-10.987a10.676,10.676,0,0,0,5.477-3c1.507,2.5,7.353,6.363,14.242,4,8.353-2.872,5.477-11.986,5.477-11.986l9.86-4c2.328-1,2.328-1.123,3.286,0S473.589,698.921,473.589,698.921Zm-3.286-2-7.669,4a11.526,11.526,0,0,1-2.191,7.99c-1.985,2.809-7.668,4-7.668,4a14.367,14.367,0,0,1-11.968-2.746l-2.274.749c5.889,7.428,12.051,7.99,12.051,7.99l-1.1-3,13.146-4-1.1-3s8.764-9.551,9.859-10.986S470.3,696.924,470.3,696.924Zm-18.467,12.948s-9.808,1.14-11.268-7.981c0,0-2.3-5.321-5.008-5.7H431.8a7,7,0,0,1-1-.133,7.7,7.7,0,0,1-4.32,3.863h-8.764s-5.478-.285-5.478,4.994c0,0,0,4.994,6.573,4.994v12.33l19.9,3.312,1.265-3.411,3.458,0.189c1.676,4.416,9.544,13.179,9.544,13.179l-1.833,1.482-8.05-4.238-26.322-.807,0.378-1.685a7.413,7.413,0,0,1-6.009,2.621s-6.094-.063-7.669-7.99c-1.1-5.544-5.477-30.962-5.477-30.962s0.274-8.989,4.382-11.986,6.025-4.994,13.146-4.994l0.592-4.994h-3.879s-3.286.5-3.286-4.993v-9.988c0-5.493,3.286-4.994,3.286-4.994h6.248l1.421-11.985S420.184,635,426.483,635s6.573,4.994,6.573,4.994L433.412,643H443.1a2,2,0,0,1,2,2v0a2,2,0,0,1-2,2h-9.209l0.47,3.969H443.1a2,2,0,0,1,2,2v0a2,2,0,0,1-2,2h-8.265l2.607,21.979-1.1,1.007c0.236-.007.4-0.008,0.478-0.008,0,0,9.39-.475,15.024,5.7,0,0,6.26,6.081,7.512,19.383C459.348,703.031,458.93,708.732,451.836,709.872ZM441.19,730.116l2.117-.517,5.934,4.754-5.16-5.977-2.192-3.6-1.266,3.411-21.809-3.23v0.932a8.192,8.192,0,0,1-1.291,3.872Zm-25.662-74.142c-2.556,0-2.191,3-2.191,3v5.993s-0.365,3,2.191,3h1.066l1.421-11.985h-2.487Zm15.814-1h-3.969a2,2,0,0,1-2-2v0a2,2,0,0,1,2-2h3.519L430.445,647h-3.072a2,2,0,0,1-2-2v0a2,2,0,0,1,2-2H430l-0.226-2.007c-0.821-3.247-3.286-2-3.286-2s-2.465-1.249-3.287,2l-3.286,29.214v1.747h-0.2l-0.9,7.991s-9.859-1.249-14.241,4a15.542,15.542,0,0,0-2.191,9.988l3.286,28.964s0.685,7.054,5.478,6.992c0,0,4.93.249,5.477-5.993V723.7l-0.565-1.925,0.565,0.094V712.9a7.6,7.6,0,0,1-7.668-7.99c-0.159-8.239,8.764-7.99,8.764-7.99h8.764a2.443,2.443,0,0,0,2.1-1.629c-1.913-.958-4.018-2.941-4.293-7.086-0.491-7.39,5.8-9.457,9.66-10.036Zm25.5,45.782c-0.939-5.416-2.824-9.647-6.26-14.823-4.069-6.128-15.024-5.7-15.024-5.7-10.016,0-8.764,7.981-8.764,7.981,0.939,4.133,3.443,5.273,8.764,5.7s6.26,4.56,6.26,4.56l2.5,5.7c2.034,4.846,7.512,3.421,7.512,3.421C457.157,706.737,456.844,700.751,456.844,700.751Zm-7.36,4.155a4,4,0,1,1,4.391-3.984A4.2,4.2,0,0,1,449.484,704.906Zm0-6.5a2.527,2.527,0,1,0,2.766,2.516A2.649,2.649,0,0,0,449.484,698.406Zm-16.422-7.469a4.016,4.016,0,1,1,4.375-4A4.2,4.2,0,0,1,433.062,690.937Zm0-6.531a2.543,2.543,0,1,0,2.782,2.531A2.665,2.665,0,0,0,433.062,684.406Zm-14.25,5.531a4.016,4.016,0,1,1,4.375-4A4.2,4.2,0,0,1,418.812,689.937Zm0-6.531a2.543,2.543,0,1,0,2.782,2.531A2.665,2.665,0,0,0,418.812,683.406Zm-3.281,38.484a4.411,4.411,0,1,1-4.39-3.984A4.2,4.2,0,0,1,415.531,721.89Zm-7.156,0a2.778,2.778,0,1,0,2.766-2.515A2.649,2.649,0,0,0,408.375,721.89Z" transform="translate(-398 -635)"/>
</svg>
