<svg xmlns="http://www.w3.org/2000/svg" width="43" height="93.063" viewBox="0 0 43 93.063">
  <metadata><?xpacket begin="﻿" id="W5M0MpCehiHzreSzNTczkc9d"?>
<x:xmpmeta xmlns:x="adobe:ns:meta/" x:xmptk="Adobe XMP Core 5.6-c138 79.159824, 2016/09/14-01:09:01        ">
   <rdf:RDF xmlns:rdf="http://www.w3.org/1999/02/22-rdf-syntax-ns#">
      <rdf:Description rdf:about=""/>
   </rdf:RDF>
</x:xmpmeta>
                           
<?xpacket end="w"?></metadata>
<defs>
    <style>
      .cls-1 {
        fill: #969696;
        fill-rule: evenodd;
      }
    </style>
  </defs>
  <path id="icon-products-5" class="cls-1" d="M285,313.291v21.775H242V313.291l2-2.625v-4l-2-1.875V282l4-4V251l3-9h29l3,9v27l4,4v22.791l-2,1.875v4Zm-38,16.775h33V313.708H247v16.358Zm31-23.358H249v4.958l-0.042.042h29.084L278,311.666v-4.958Zm-31-2h33V289H247v15.708ZM274,247h-2v21l-2,4-2-4V247h-9v21l-2,4-2-4V247h-2l-2,4v27h25V251Zm2,34H251l-4,5h33Z" transform="translate(-242 -242)"/>
</svg>
