<svg xmlns="http://www.w3.org/2000/svg" width="104" height="97" viewBox="0 0 104 97">
  <metadata><?xpacket begin="﻿" id="W5M0MpCehiHzreSzNTczkc9d"?>
<x:xmpmeta xmlns:x="adobe:ns:meta/" x:xmptk="Adobe XMP Core 5.6-c138 79.159824, 2016/09/14-01:09:01        ">
   <rdf:RDF xmlns:rdf="http://www.w3.org/1999/02/22-rdf-syntax-ns#">
      <rdf:Description rdf:about=""/>
   </rdf:RDF>
</x:xmpmeta>

<?xpacket end="w"?></metadata>
<defs>
    <style>
      .cls-1 {
        fill: #969696;
        fill-rule: evenodd;
      }
    </style>
  </defs>
  <path id="icon-services-5" class="cls-1" d="M339.828,715c-0.132.143-.252,0.294-0.391,0.433a15.481,15.481,0,0,1-21.906,0,15.676,15.676,0,0,1-1.531-1.8V714h-7v2l12,7v6H271v-6l11-7v-2h-6v-0.387A15.464,15.464,0,0,1,252.145,715H244V697h5.934a15.5,15.5,0,0,1,27.132,0H282V687l-4-2v-7h4v-3h-4V664h9v-6.084c-0.166-.148-0.333-0.293-0.492-0.452A12,12,0,0,1,286.049,641H286v-9h18v9.081A11.993,11.993,0,0,1,303.889,657H304v7h9v11h-4v3h4v7l-4,2v10h5.921a15.46,15.46,0,0,1,27.126,0H348v18h-8.172ZM248,704.484a15.443,15.443,0,0,1,.666-4.484H247v12h2.953A15.389,15.389,0,0,1,248,704.484Zm13.473-11.958a12.123,12.123,0,0,0-9.14,16.754l8.377-4.829a2.931,2.931,0,0,1,1.4-1.684ZM261.43,707.4l-6.92,5.236a12.124,12.124,0,0,0,17.984,0l-6.919-5.235A2.947,2.947,0,0,1,261.43,707.4Zm4.107-14.873L264.9,702.772a2.937,2.937,0,0,1,1.39,1.67l8.383,4.833A12.123,12.123,0,0,0,265.537,692.527Zm12.8,7.473a15.368,15.368,0,0,1-.788,11H282V700h-3.666ZM290,664h11v-4.651a12.008,12.008,0,0,1-11,.537V664Zm-1.659-8.371a9.361,9.361,0,0,0,3.163,2.085l1.937-7.234a2.281,2.281,0,0,1-.16-1.687l-5.95-5.255A9.407,9.407,0,0,0,288.341,655.629ZM301,635H289v3.592a11.986,11.986,0,0,1,12,.014V635Zm0.634,7.326a9.388,9.388,0,0,0-12.081-1.012l5.25,5.955a2.274,2.274,0,0,1,1.686.161l7.228-1.94A9.364,9.364,0,0,0,301.634,642.326Zm2.731,6.194-6.65.919a2.27,2.27,0,0,1-2.266,2.268l-0.918,6.656A9.371,9.371,0,0,0,304.365,648.52ZM310,672v-5H281v5h29Zm-24,3v3h19v-3H286Zm24,9v-3H281v3l5,3h19Zm-24,6v24h19V690H286Zm19,27H286l-10,7v2h40v-2Zm8.653-17H309v11h5.47A15.543,15.543,0,0,1,313.653,700Zm6.247,13.063a12.092,12.092,0,0,0,4.084,2.693l2.5-9.344a2.946,2.946,0,0,1-.207-2.18l-7.686-6.787A12.151,12.151,0,0,0,319.9,713.063Zm17.169-17.184a12.127,12.127,0,0,0-15.605-1.306l6.782,7.692a2.939,2.939,0,0,1,2.177.207l9.336-2.5A12.109,12.109,0,0,0,337.069,695.879Zm-5.063,9.188A2.929,2.929,0,0,1,329.079,708l-1.185,8.6a12.1,12.1,0,0,0,12.7-12.712ZM345,700h-1.684a15.539,15.539,0,0,1-1.3,12H345V700Z" transform="translate(-244 -632)"/>
</svg>
